STARTFONT 2.1
COMMENT This font is still under development.
COMMENT You can use, copy, modify, distribute this file for free.
COMMENT
COMMENT 99.2.20 created by K.Handa <handa@etl.go.jp>
FONT -ETL-Fixed-Medium-I-Normal--18-180-72-72-C-90-VISCII1.1-1
SIZE 18 72 72
FONTBOUNDINGBOX 9 18 0 -3
STARTPROPERTIES 18
FONTNAME_REGISTRY ""
FOUNDRY "ETL"
FAMILY_NAME "Fixed"
WEIGHT_NAME "Medium"
SLANT "I"
SETWIDTH_NAME "Normal"
ADD_STYLE_NAME ""
PIXEL_SIZE 18
POINT_SIZE 180
RESOLUTION_X 72
RESOLUTION_Y 72 
SPACING "C"
AVERAGE_WIDTH 80
CHARSET_REGISTRY "VISCII1.1"
CHARSET_ENCODING "1"
FONT_ASCENT 15
FONT_DESCENT 3
DEFAULT_CHAR 32
ENDPROPERTIES
CHARS 226
STARTCHAR c02
ENCODING 2
SWIDTH 500 0
DWIDTH 9 0
BBX 9 18 0 -3
BITMAP
0300
0100
1280
1f00
0000
0e00
1100
2100
2100
4100
7f00
4200
8200
8400
8400
0000
0000
0000
ENDCHAR
STARTCHAR c05
ENCODING 5
SWIDTH 500 0
DWIDTH 9 0
BBX 9 18 0 -3
BITMAP
0680
0b00
1080
1f00
0000
0e00
1100
2100
2100
4100
7f00
4200
8200
8400
8400
0000
0000
0000
ENDCHAR
STARTCHAR c06
ENCODING 6
SWIDTH 500 0
DWIDTH 9 0
BBX 9 18 0 -3
BITMAP
0680
0b00
0000
1f00
2080
0e00
1100
2100
2100
4100
7f00
4200
8200
8400
8400
0000
0000
0000
ENDCHAR
STARTCHAR SPACE
ENCODING 32
SWIDTH 500 0
DWIDTH 9 0
BBX 9 18 0 -3
BITMAP
0000
0000
0000
0000
0000
0000
0000
0000
0000
0000
0000
0000
0000
0000
0000
0000
0000
0000
ENDCHAR
STARTCHAR EXCLAMATION
ENCODING 33
SWIDTH 500 0
DWIDTH 9 0
BBX 9 18 0 -3
BITMAP
0000
0000
0000
0000
0200
0400
0400
0400
0800
0800
0800
0000
1000
1000
0000
0000
0000
0000
ENDCHAR
STARTCHAR QUOTATION
ENCODING 34
SWIDTH 500 0
DWIDTH 9 0
BBX 9 18 0 -3
BITMAP
0000
0000
0000
0000
1b00
1b00
1200
2400
0000
0000
0000
0000
0000
0000
0000
0000
0000
0000
ENDCHAR
STARTCHAR NUMBER
ENCODING 35
SWIDTH 500 0
DWIDTH 9 0
BBX 9 18 0 -3
BITMAP
0000
0000
0000
0000
0000
0280
0280
0500
3f80
0a00
1400
7f00
2800
5000
5000
0000
0000
0000
ENDCHAR
STARTCHAR DOLLAR
ENCODING 36
SWIDTH 500 0
DWIDTH 9 0
BBX 9 18 0 -3
BITMAP
0000
0000
0000
0000
0000
0200
1e00
2500
2400
1800
0c00
0a00
5200
3c00
1000
0000
0000
0000
ENDCHAR
STARTCHAR PERCENT
ENCODING 37
SWIDTH 500 0
DWIDTH 9 0
BBX 9 18 0 -3
BITMAP
0000
0000
0000
0000
0000
1c00
2480
2500
3a00
0c00
1800
3e00
5200
9200
1c00
0000
0000
0000
ENDCHAR
STARTCHAR AMPERSAND
ENCODING 38
SWIDTH 500 0
DWIDTH 9 0
BBX 9 18 0 -3
BITMAP
0000
0000
0000
0000
0000
0e00
1200
1200
0c00
1000
2900
4600
8400
8c00
7200
0000
0000
0000
ENDCHAR
STARTCHAR c27
ENCODING 39
SWIDTH 500 0
DWIDTH 9 0
BBX 9 18 0 -3
BITMAP
0000
0000
0000
0000
1800
1800
1000
2000
0000
0000
0000
0000
0000
0000
0000
0000
0000
0000
ENDCHAR
STARTCHAR LEFT
ENCODING 40
SWIDTH 500 0
DWIDTH 9 0
BBX 9 18 0 -3
BITMAP
0000
0000
0000
0000
0100
0200
0400
0800
1000
1000
2000
2000
2000
2000
1000
0800
0000
0000
ENDCHAR
STARTCHAR RIGHT
ENCODING 41
SWIDTH 500 0
DWIDTH 9 0
BBX 9 18 0 -3
BITMAP
0000
0000
0000
0000
0800
0400
0200
0200
0200
0200
0400
0400
0800
1000
2000
4000
0000
0000
ENDCHAR
STARTCHAR ASTERISK
ENCODING 42
SWIDTH 500 0
DWIDTH 9 0
BBX 9 18 0 -3
BITMAP
0000
0000
0000
0000
0000
0000
0000
0400
2500
2a00
1c00
2a00
5200
1000
0000
0000
0000
0000
ENDCHAR
STARTCHAR PLUS
ENCODING 43
SWIDTH 500 0
DWIDTH 9 0
BBX 9 18 0 -3
BITMAP
0000
0000
0000
0000
0000
0000
0000
0400
0400
0800
7f00
0800
1000
1000
0000
0000
0000
0000
ENDCHAR
STARTCHAR COMMA
ENCODING 44
SWIDTH 500 0
DWIDTH 9 0
BBX 9 18 0 -3
BITMAP
0000
0000
0000
0000
0000
0000
0000
0000
0000
0000
0000
0000
0000
3000
3000
2000
4000
0000
ENDCHAR
STARTCHAR HYPHEN,
ENCODING 45
SWIDTH 500 0
DWIDTH 9 0
BBX 9 18 0 -3
BITMAP
0000
0000
0000
0000
0000
0000
0000
0000
0000
0000
7f00
0000
0000
0000
0000
0000
0000
0000
ENDCHAR
STARTCHAR FULL
ENCODING 46
SWIDTH 500 0
DWIDTH 9 0
BBX 9 18 0 -3
BITMAP
0000
0000
0000
0000
0000
0000
0000
0000
0000
0000
0000
0000
0000
3000
3000
0000
0000
0000
ENDCHAR
STARTCHAR c2f
ENCODING 47
SWIDTH 500 0
DWIDTH 9 0
BBX 9 18 0 -3
BITMAP
0000
0000
0000
0000
0000
0080
0080
0100
0200
0400
0800
1000
2000
4000
8000
8000
0000
0000
ENDCHAR
STARTCHAR DIGIT
ENCODING 48
SWIDTH 500 0
DWIDTH 9 0
BBX 9 18 0 -3
BITMAP
0000
0000
0000
0000
0000
0e00
1100
2100
4100
4100
8200
8200
8400
8800
7000
0000
0000
0000
ENDCHAR
STARTCHAR DIGIT
ENCODING 49
SWIDTH 500 0
DWIDTH 9 0
BBX 9 18 0 -3
BITMAP
0000
0000
0000
0000
0000
0200
0c00
1400
0400
0800
0800
0800
1000
1000
7c00
0000
0000
0000
ENDCHAR
STARTCHAR DIGIT
ENCODING 50
SWIDTH 500 0
DWIDTH 9 0
BBX 9 18 0 -3
BITMAP
0000
0000
0000
0000
0000
1e00
2100
4100
4100
0600
0800
3000
4000
8000
fc00
0000
0000
0000
ENDCHAR
STARTCHAR DIGIT
ENCODING 51
SWIDTH 500 0
DWIDTH 9 0
BBX 9 18 0 -3
BITMAP
0000
0000
0000
0000
0000
1e00
2100
4100
0200
1c00
0400
0200
0200
8400
7800
0000
0000
0000
ENDCHAR
STARTCHAR DIGIT
ENCODING 52
SWIDTH 500 0
DWIDTH 9 0
BBX 9 18 0 -3
BITMAP
0000
0000
0000
0000
0000
0200
0600
0a00
1200
2400
4400
8400
fe00
0800
0800
0000
0000
0000
ENDCHAR
STARTCHAR DIGIT
ENCODING 53
SWIDTH 500 0
DWIDTH 9 0
BBX 9 18 0 -3
BITMAP
0000
0000
0000
0000
0000
1f00
2000
2000
3c00
4200
0100
0100
0200
8400
7800
0000
0000
0000
ENDCHAR
STARTCHAR DIGIT
ENCODING 54
SWIDTH 500 0
DWIDTH 9 0
BBX 9 18 0 -3
BITMAP
0000
0000
0000
0000
0000
0300
0c00
1000
2000
7c00
4200
8200
8200
8400
7800
0000
0000
0000
ENDCHAR
STARTCHAR DIGIT
ENCODING 55
SWIDTH 500 0
DWIDTH 9 0
BBX 9 18 0 -3
BITMAP
0000
0000
0000
0000
0000
3f80
0100
0200
0400
0800
1000
1000
2000
2000
2000
0000
0000
0000
ENDCHAR
STARTCHAR DIGIT
ENCODING 56
SWIDTH 500 0
DWIDTH 9 0
BBX 9 18 0 -3
BITMAP
0000
0000
0000
0000
0000
0f00
1080
1080
0f00
3200
4100
8100
8100
8200
7c00
0000
0000
0000
ENDCHAR
STARTCHAR DIGIT
ENCODING 57
SWIDTH 500 0
DWIDTH 9 0
BBX 9 18 0 -3
BITMAP
0000
0000
0000
0000
0000
0f00
1080
2080
2080
2100
1f00
0200
0400
0800
7000
0000
0000
0000
ENDCHAR
STARTCHAR COLON
ENCODING 58
SWIDTH 500 0
DWIDTH 9 0
BBX 9 18 0 -3
BITMAP
0000
0000
0000
0000
0000
0000
0000
0000
0c00
0c00
0000
0000
0000
3000
3000
0000
0000
0000
ENDCHAR
STARTCHAR SEMICOLON
ENCODING 59
SWIDTH 500 0
DWIDTH 9 0
BBX 9 18 0 -3
BITMAP
0000
0000
0000
0000
0000
0000
0000
0000
0c00
0c00
0000
0000
0000
3000
3000
2000
4000
0000
ENDCHAR
STARTCHAR LESS-THAN
ENCODING 60
SWIDTH 500 0
DWIDTH 9 0
BBX 9 18 0 -3
BITMAP
0000
0000
0000
0000
0000
0100
0200
0400
0800
1000
2000
2000
1000
0800
0400
0000
0000
0000
ENDCHAR
STARTCHAR EQUALS
ENCODING 61
SWIDTH 500 0
DWIDTH 9 0
BBX 9 18 0 -3
BITMAP
0000
0000
0000
0000
0000
0000
0000
0000
3f80
0000
0000
0000
fe00
0000
0000
0000
0000
0000
ENDCHAR
STARTCHAR GREATER-THAN
ENCODING 62
SWIDTH 500 0
DWIDTH 9 0
BBX 9 18 0 -3
BITMAP
0000
0000
0000
0000
0000
1000
0800
0400
0200
0200
0400
0800
1000
2000
4000
0000
0000
0000
ENDCHAR
STARTCHAR QUESTION
ENCODING 63
SWIDTH 500 0
DWIDTH 9 0
BBX 9 18 0 -3
BITMAP
0000
0000
0000
0000
0000
1e00
2100
4100
0200
0400
0800
1000
1000
0000
1000
0000
0000
0000
ENDCHAR
STARTCHAR COMMERCIAL
ENCODING 64
SWIDTH 500 0
DWIDTH 9 0
BBX 9 18 0 -3
BITMAP
0000
0000
0000
0000
0000
1e00
2100
4100
5d00
a200
a200
a200
bc00
8000
7c00
0000
0000
0000
ENDCHAR
STARTCHAR CAPITAL
ENCODING 65
SWIDTH 500 0
DWIDTH 9 0
BBX 9 18 0 -3
BITMAP
0000
0000
0000
0000
0000
0e00
1100
2100
2100
4100
7f00
4200
8200
8400
8400
0000
0000
0000
ENDCHAR
STARTCHAR CAPITAL
ENCODING 66
SWIDTH 500 0
DWIDTH 9 0
BBX 9 18 0 -3
BITMAP
0000
0000
0000
0000
0000
1e00
2100
2100
2200
7c00
4200
4200
8200
8400
f800
0000
0000
0000
ENDCHAR
STARTCHAR CAPITAL
ENCODING 67
SWIDTH 500 0
DWIDTH 9 0
BBX 9 18 0 -3
BITMAP
0000
0000
0000
0000
0000
1e00
2100
4100
4000
4000
8000
8000
8200
4400
3800
0000
0000
0000
ENDCHAR
STARTCHAR CAPITAL
ENCODING 68
SWIDTH 500 0
DWIDTH 9 0
BBX 9 18 0 -3
BITMAP
0000
0000
0000
0000
0000
1e00
1100
2100
2080
2080
4100
4100
4200
8400
f800
0000
0000
0000
ENDCHAR
STARTCHAR CAPITAL
ENCODING 69
SWIDTH 500 0
DWIDTH 9 0
BBX 9 18 0 -3
BITMAP
0000
0000
0000
0000
0000
1f80
1000
2000
2000
3c00
4000
4000
4000
8000
fc00
0000
0000
0000
ENDCHAR
STARTCHAR CAPITAL
ENCODING 70
SWIDTH 500 0
DWIDTH 9 0
BBX 9 18 0 -3
BITMAP
0000
0000
0000
0000
0000
1f80
1000
2000
2000
3c00
4000
4000
4000
8000
8000
0000
0000
0000
ENDCHAR
STARTCHAR CAPITAL
ENCODING 71
SWIDTH 500 0
DWIDTH 9 0
BBX 9 18 0 -3
BITMAP
0000
0000
0000
0000
0000
1e00
2100
4100
4000
4000
8e00
8200
8200
4c00
3400
0000
0000
0000
ENDCHAR
STARTCHAR CAPITAL
ENCODING 72
SWIDTH 500 0
DWIDTH 9 0
BBX 9 18 0 -3
BITMAP
0000
0000
0000
0000
0000
1080
1080
2100
2100
3f00
4200
4200
4200
8400
8400
0000
0000
0000
ENDCHAR
STARTCHAR CAPITAL
ENCODING 73
SWIDTH 500 0
DWIDTH 9 0
BBX 9 18 0 -3
BITMAP
0000
0000
0000
0000
0000
1f00
0400
0400
0800
0800
0800
1000
1000
1000
7c00
0000
0000
0000
ENDCHAR
STARTCHAR CAPITAL
ENCODING 74
SWIDTH 500 0
DWIDTH 9 0
BBX 9 18 0 -3
BITMAP
0000
0000
0000
0000
0000
1f00
0400
0400
0400
0800
0800
0800
0800
9000
6000
0000
0000
0000
ENDCHAR
STARTCHAR CAPITAL
ENCODING 75
SWIDTH 500 0
DWIDTH 9 0
BBX 9 18 0 -3
BITMAP
0000
0000
0000
0000
0000
1100
1200
2400
2800
3000
6000
5000
4800
8400
8400
0000
0000
0000
ENDCHAR
STARTCHAR CAPITAL
ENCODING 76
SWIDTH 500 0
DWIDTH 9 0
BBX 9 18 0 -3
BITMAP
0000
0000
0000
0000
0000
0800
0800
1000
1000
1000
2000
2000
2000
4000
7f00
0000
0000
0000
ENDCHAR
STARTCHAR CAPITAL
ENCODING 77
SWIDTH 500 0
DWIDTH 9 0
BBX 9 18 0 -3
BITMAP
0000
0000
0000
0000
0000
2080
2180
2180
3280
5500
4d00
4900
8200
8200
8200
0000
0000
0000
ENDCHAR
STARTCHAR CAPITAL
ENCODING 78
SWIDTH 500 0
DWIDTH 9 0
BBX 9 18 0 -3
BITMAP
0000
0000
0000
0000
0000
2080
2080
3080
5100
4900
4900
4500
8600
8200
8200
0000
0000
0000
ENDCHAR
STARTCHAR CAPITAL
ENCODING 79
SWIDTH 500 0
DWIDTH 9 0
BBX 9 18 0 -3
BITMAP
0000
0000
0000
0000
0000
1e00
2100
4100
4100
4100
8200
8200
8200
8400
7800
0000
0000
0000
ENDCHAR
STARTCHAR CAPITAL
ENCODING 80
SWIDTH 500 0
DWIDTH 9 0
BBX 9 18 0 -3
BITMAP
0000
0000
0000
0000
0000
1c00
1200
2100
2100
2200
7c00
4000
4000
8000
8000
0000
0000
0000
ENDCHAR
STARTCHAR CAPITAL
ENCODING 81
SWIDTH 500 0
DWIDTH 9 0
BBX 9 18 0 -3
BITMAP
0000
0000
0000
0000
0000
1e00
2100
4100
4100
4100
8200
9a00
a600
a400
7a00
0000
0000
0000
ENDCHAR
STARTCHAR CAPITAL
ENCODING 82
SWIDTH 500 0
DWIDTH 9 0
BBX 9 18 0 -3
BITMAP
0000
0000
0000
0000
0000
1c00
1200
2100
2100
2200
7c00
5000
4800
8400
8200
0000
0000
0000
ENDCHAR
STARTCHAR CAPITAL
ENCODING 83
SWIDTH 500 0
DWIDTH 9 0
BBX 9 18 0 -3
BITMAP
0000
0000
0000
0000
0000
1e00
2100
2000
1000
0c00
0200
0100
8100
4200
3c00
0000
0000
0000
ENDCHAR
STARTCHAR CAPITAL
ENCODING 84
SWIDTH 500 0
DWIDTH 9 0
BBX 9 18 0 -3
BITMAP
0000
0000
0000
0000
0000
3f80
0400
0400
0800
0800
1000
1000
1000
2000
2000
0000
0000
0000
ENDCHAR
STARTCHAR CAPITAL
ENCODING 85
SWIDTH 500 0
DWIDTH 9 0
BBX 9 18 0 -3
BITMAP
0000
0000
0000
0000
0000
2080
2080
4080
4100
4100
4100
8200
8200
8400
7800
0000
0000
0000
ENDCHAR
STARTCHAR CAPITAL
ENCODING 86
SWIDTH 500 0
DWIDTH 9 0
BBX 9 18 0 -3
BITMAP
0000
0000
0000
0000
0000
4080
4100
4100
4200
4400
2400
2800
3000
2000
2000
0000
0000
0000
ENDCHAR
STARTCHAR CAPITAL
ENCODING 87
SWIDTH 500 0
DWIDTH 9 0
BBX 9 18 0 -3
BITMAP
0000
0000
0000
0000
0000
2080
2080
2080
4900
4900
5900
a600
c600
c400
8400
0000
0000
0000
ENDCHAR
STARTCHAR CAPITAL
ENCODING 88
SWIDTH 500 0
DWIDTH 9 0
BBX 9 18 0 -3
BITMAP
0000
0000
0000
0000
0000
2080
2100
2100
1200
1c00
1800
1800
2400
4400
8400
0000
0000
0000
ENDCHAR
STARTCHAR CAPITAL
ENCODING 89
SWIDTH 500 0
DWIDTH 9 0
BBX 9 18 0 -3
BITMAP
0000
0000
0000
0000
0000
4080
4100
2200
2400
1800
1000
1000
2000
2000
2000
0000
0000
0000
ENDCHAR
STARTCHAR CAPITAL
ENCODING 90
SWIDTH 500 0
DWIDTH 9 0
BBX 9 18 0 -3
BITMAP
0000
0000
0000
0000
0000
1f80
0100
0200
0400
0800
1000
2000
4000
8000
fc00
0000
0000
0000
ENDCHAR
STARTCHAR LEFT
ENCODING 91
SWIDTH 500 0
DWIDTH 9 0
BBX 9 18 0 -3
BITMAP
0000
0000
0000
0000
0700
0400
0400
0800
0800
0800
1000
1000
1000
2000
2000
3800
0000
0000
ENDCHAR
STARTCHAR REVERSE
ENCODING 92
SWIDTH 500 0
DWIDTH 9 0
BBX 9 18 0 -3
BITMAP
0000
0000
0000
0000
2000
2000
2000
1000
1000
1000
0800
0800
0800
0400
0400
0400
0000
0000
ENDCHAR
STARTCHAR RIGHT
ENCODING 93
SWIDTH 500 0
DWIDTH 9 0
BBX 9 18 0 -3
BITMAP
0000
0000
0000
0000
0e00
0200
0200
0400
0400
0400
0800
0800
0800
1000
1000
7000
0000
0000
ENDCHAR
STARTCHAR CIRCUMFLEX
ENCODING 94
SWIDTH 500 0
DWIDTH 9 0
BBX 9 18 0 -3
BITMAP
0000
0000
0000
0600
0a00
1200
0000
0000
0000
0000
0000
0000
0000
0000
0000
0000
0000
0000
ENDCHAR
STARTCHAR LOW
ENCODING 95
SWIDTH 500 0
DWIDTH 9 0
BBX 9 18 0 -3
BITMAP
0000
0000
0000
0000
0000
0000
0000
0000
0000
0000
0000
0000
0000
0000
0000
7e00
0000
0000
ENDCHAR
STARTCHAR GRAVE
ENCODING 96
SWIDTH 500 0
DWIDTH 9 0
BBX 9 18 0 -3
BITMAP
0000
0000
0000
0000
0600
0600
0800
0800
0000
0000
0000
0000
0000
0000
0000
0000
0000
0000
ENDCHAR
STARTCHAR SMALL
ENCODING 97
SWIDTH 500 0
DWIDTH 9 0
BBX 9 18 0 -3
BITMAP
0000
0000
0000
0000
0000
0000
0000
0000
1e00
2100
0100
3f00
4200
8600
7a00
0000
0000
0000
ENDCHAR
STARTCHAR SMALL
ENCODING 98
SWIDTH 500 0
DWIDTH 9 0
BBX 9 18 0 -3
BITMAP
0000
0000
0000
0000
0000
1000
1000
2000
2c00
3200
4100
4100
4200
c400
b800
0000
0000
0000
ENDCHAR
STARTCHAR SMALL
ENCODING 99
SWIDTH 500 0
DWIDTH 9 0
BBX 9 18 0 -3
BITMAP
0000
0000
0000
0000
0000
0000
0000
0000
1e00
2100
2000
4000
4000
4200
3c00
0000
0000
0000
ENDCHAR
STARTCHAR SMALL
ENCODING 100
SWIDTH 500 0
DWIDTH 9 0
BBX 9 18 0 -3
BITMAP
0000
0000
0000
0000
0000
0100
0100
0100
1a00
2600
4200
8200
8400
8c00
7400
0000
0000
0000
ENDCHAR
STARTCHAR SMALL
ENCODING 101
SWIDTH 500 0
DWIDTH 9 0
BBX 9 18 0 -3
BITMAP
0000
0000
0000
0000
0000
0000
0000
0000
1e00
2100
4100
7e00
4000
4200
3c00
0000
0000
0000
ENDCHAR
STARTCHAR SMALL
ENCODING 102
SWIDTH 500 0
DWIDTH 9 0
BBX 9 18 0 -3
BITMAP
0000
0000
0000
0000
0000
0300
0480
0800
0800
7e00
1000
1000
2000
2000
2000
0000
0000
0000
ENDCHAR
STARTCHAR SMALL
ENCODING 103
SWIDTH 500 0
DWIDTH 9 0
BBX 9 18 0 -3
BITMAP
0000
0000
0000
0000
0000
0000
0000
0080
1e80
2300
4100
2200
3c00
4000
7c00
8200
8400
7800
ENDCHAR
STARTCHAR SMALL
ENCODING 104
SWIDTH 500 0
DWIDTH 9 0
BBX 9 18 0 -3
BITMAP
0000
0000
0000
0000
0000
0800
0800
1000
1600
1900
2100
2100
4100
4200
4200
0000
0000
0000
ENDCHAR
STARTCHAR SMALL
ENCODING 105
SWIDTH 500 0
DWIDTH 9 0
BBX 9 18 0 -3
BITMAP
0000
0000
0000
0000
0000
0200
0200
0000
0400
1c00
0800
0800
1000
1200
1c00
0000
0000
0000
ENDCHAR
STARTCHAR SMALL
ENCODING 106
SWIDTH 500 0
DWIDTH 9 0
BBX 9 18 0 -3
BITMAP
0000
0000
0000
0000
0000
0100
0100
0000
0e00
0400
0400
0400
0800
0800
0800
1000
9000
6000
ENDCHAR
STARTCHAR SMALL
ENCODING 107
SWIDTH 500 0
DWIDTH 9 0
BBX 9 18 0 -3
BITMAP
0000
0000
0000
0000
0000
0800
0800
1000
1200
1400
2800
3000
4800
4400
4200
0000
0000
0000
ENDCHAR
STARTCHAR SMALL
ENCODING 108
SWIDTH 500 0
DWIDTH 9 0
BBX 9 18 0 -3
BITMAP
0000
0000
0000
0000
0000
0c00
0400
0800
0800
1000
1000
1000
2000
2400
3800
0000
0000
0000
ENDCHAR
STARTCHAR SMALL
ENCODING 109
SWIDTH 500 0
DWIDTH 9 0
BBX 9 18 0 -3
BITMAP
0000
0000
0000
0000
0000
0000
0000
0000
7e00
4900
4900
4900
9200
9200
9200
0000
0000
0000
ENDCHAR
STARTCHAR SMALL
ENCODING 110
SWIDTH 500 0
DWIDTH 9 0
BBX 9 18 0 -3
BITMAP
0000
0000
0000
0000
0000
0000
0000
0000
2e00
3100
2100
2100
4200
4200
4200
0000
0000
0000
ENDCHAR
STARTCHAR SMALL
ENCODING 111
SWIDTH 500 0
DWIDTH 9 0
BBX 9 18 0 -3
BITMAP
0000
0000
0000
0000
0000
0000
0000
0000
1e00
2100
2100
4100
4200
4200
3c00
0000
0000
0000
ENDCHAR
STARTCHAR c70
ENCODING 112
SWIDTH 500 0
DWIDTH 9 0
BBX 9 18 0 -3
BITMAP
0000
0000
0000
0000
0000
0000
0000
0000
1600
1900
2100
2100
2100
6200
5c00
4000
8000
8000
ENDCHAR
STARTCHAR c71
ENCODING 113
SWIDTH 500 0
DWIDTH 9 0
BBX 9 18 0 -3
BITMAP
0000
0000
0000
0000
0000
0000
0000
0000
1d00
2700
4200
8200
8600
8c00
7400
0400
0800
0800
ENDCHAR
STARTCHAR SMALL
ENCODING 114
SWIDTH 500 0
DWIDTH 9 0
BBX 9 18 0 -3
BITMAP
0000
0000
0000
0000
0000
0000
0000
0000
2600
2900
3000
4000
4000
4000
4000
0000
0000
0000
ENDCHAR
STARTCHAR SMALL
ENCODING 115
SWIDTH 500 0
DWIDTH 9 0
BBX 9 18 0 -3
BITMAP
0000
0000
0000
0000
0000
0000
0000
0000
1e00
2100
2000
1e00
0100
4200
3c00
0000
0000
0000
ENDCHAR
STARTCHAR SMALL
ENCODING 116
SWIDTH 500 0
DWIDTH 9 0
BBX 9 18 0 -3
BITMAP
0000
0000
0000
0000
0000
0400
0800
0800
3e00
1000
1000
2000
2000
2200
1c00
0000
0000
0000
ENDCHAR
STARTCHAR SMALL
ENCODING 117
SWIDTH 500 0
DWIDTH 9 0
BBX 9 18 0 -3
BITMAP
0000
0000
0000
0000
0000
0000
0000
0000
2100
2100
2100
4200
4200
4600
3a00
0000
0000
0000
ENDCHAR
STARTCHAR SMALL
ENCODING 118
SWIDTH 500 0
DWIDTH 9 0
BBX 9 18 0 -3
BITMAP
0000
0000
0000
0000
0000
0000
0000
0000
4100
4200
4400
4800
5000
6000
4000
0000
0000
0000
ENDCHAR
STARTCHAR SMALL
ENCODING 119
SWIDTH 500 0
DWIDTH 9 0
BBX 9 18 0 -3
BITMAP
0000
0000
0000
0000
0000
0000
0000
0000
4100
4900
4900
9200
9200
9200
6c00
0000
0000
0000
ENDCHAR
STARTCHAR SMALL
ENCODING 120
SWIDTH 500 0
DWIDTH 9 0
BBX 9 18 0 -3
BITMAP
0000
0000
0000
0000
0000
0000
0000
0000
2100
2200
1400
0800
1800
2400
4200
0000
0000
0000
ENDCHAR
STARTCHAR SMALL
ENCODING 121
SWIDTH 500 0
DWIDTH 9 0
BBX 9 18 0 -3
BITMAP
0000
0000
0000
0000
0000
0000
0000
0000
2100
2100
2100
4200
4200
4600
3a00
0400
4400
3800
ENDCHAR
STARTCHAR SMALL
ENCODING 122
SWIDTH 500 0
DWIDTH 9 0
BBX 9 18 0 -3
BITMAP
0000
0000
0000
0000
0000
0000
0000
0000
3f00
0200
0400
0800
1000
2000
7e00
0000
0000
0000
ENDCHAR
STARTCHAR LEFT
ENCODING 123
SWIDTH 500 0
DWIDTH 9 0
BBX 9 18 0 -3
BITMAP
0000
0000
0000
0000
0300
0400
0800
0800
0400
0800
1000
0800
1000
2000
2000
1800
0000
0000
ENDCHAR
STARTCHAR VERTICAL
ENCODING 124
SWIDTH 500 0
DWIDTH 9 0
BBX 9 18 0 -3
BITMAP
0000
0000
0000
0200
0200
0200
0400
0400
0400
0800
0800
0800
1000
1000
1000
2000
2000
0000
ENDCHAR
STARTCHAR c7d
ENCODING 125
SWIDTH 500 0
DWIDTH 9 0
BBX 9 18 0 -3
BITMAP
0000
0000
0000
0000
0c00
0200
0200
0400
0800
0400
0800
1000
0800
0800
1000
6000
0000
0000
ENDCHAR
STARTCHAR TILDE
ENCODING 126
SWIDTH 500 0
DWIDTH 9 0
BBX 9 18 0 -3
BITMAP
0000
0000
0000
0000
0000
3800
4900
0e00
0000
0000
0000
0000
0000
0000
0000
0000
0000
0000
ENDCHAR
STARTCHAR c80
ENCODING 128
SWIDTH 500 0
DWIDTH 9 0
BBX 9 18 0 -3
BITMAP
0000
0000
0000
0000
0000
0e00
1100
2100
2100
4100
7f00
4200
8200
8400
8400
0000
2000
2000
ENDCHAR
STARTCHAR c81
ENCODING 129
SWIDTH 500 0
DWIDTH 9 0
BBX 9 18 0 -3
BITMAP
0100
0200
0880
0f00
0000
0e00
1100
2100
2100
4100
7f00
4200
8200
8400
8400
0000
0000
0000
ENDCHAR
STARTCHAR c82
ENCODING 130
SWIDTH 500 0
DWIDTH 9 0
BBX 9 18 0 -3
BITMAP
0400
0200
0880
0f00
0000
0e00
1100
2100
2100
4100
7f00
4200
8200
8400
8400
0000
0000
0000
ENDCHAR
STARTCHAR c83
ENCODING 131
SWIDTH 500 0
DWIDTH 9 0
BBX 9 18 0 -3
BITMAP
0000
0000
0880
0f00
0000
0e00
1100
2100
2100
4100
7f00
4200
8200
8400
8400
0000
2000
2000
ENDCHAR
STARTCHAR c84
ENCODING 132
SWIDTH 500 0
DWIDTH 9 0
BBX 9 18 0 -3
BITMAP
0000
0400
0800
0f00
1100
0e00
1100
2100
2100
4100
7f00
4200
8200
8400
8400
0000
0000
0000
ENDCHAR
STARTCHAR c85
ENCODING 133
SWIDTH 500 0
DWIDTH 9 0
BBX 9 18 0 -3
BITMAP
0000
0100
0080
0f00
1100
0e00
1100
2100
2100
4100
7f00
4200
8200
8400
8400
0000
0000
0000
ENDCHAR
STARTCHAR c86
ENCODING 134
SWIDTH 500 0
DWIDTH 9 0
BBX 9 18 0 -3
BITMAP
0000
0180
0080
0f80
1100
0e00
1100
2100
2100
4100
7f00
4200
8200
8400
8400
0000
0000
0000
ENDCHAR
STARTCHAR c87
ENCODING 135
SWIDTH 500 0
DWIDTH 9 0
BBX 9 18 0 -3
BITMAP
0000
0000
0000
0f00
1100
0e00
1100
2100
2100
4100
7f00
4200
8200
8400
8400
0000
2000
2000
ENDCHAR
STARTCHAR c88
ENCODING 136
SWIDTH 500 0
DWIDTH 9 0
BBX 9 18 0 -3
BITMAP
0000
0000
0680
0b00
0000
1f80
1000
2000
2000
3c00
4000
4000
4000
8000
fc00
0000
0000
0000
ENDCHAR
STARTCHAR c89
ENCODING 137
SWIDTH 500 0
DWIDTH 9 0
BBX 9 18 0 -3
BITMAP
0000
0000
0000
0000
0000
1f80
1000
2000
2000
3c00
4000
4000
4000
8000
fc00
0000
2000
2000
ENDCHAR
STARTCHAR c8a
ENCODING 138
SWIDTH 500 0
DWIDTH 9 0
BBX 9 18 0 -3
BITMAP
0400
0800
0f00
1100
0000
1f80
1000
2000
2000
3c00
4000
4000
4000
8000
fc00
0000
0000
0000
ENDCHAR
STARTCHAR c8b
ENCODING 139
SWIDTH 500 0
DWIDTH 9 0
BBX 9 18 0 -3
BITMAP
0100
0080
0f00
1100
0000
1f80
1000
2000
2000
3c00
4000
4000
4000
8000
fc00
0000
0000
0000
ENDCHAR
STARTCHAR c8c
ENCODING 140
SWIDTH 500 0
DWIDTH 9 0
BBX 9 18 0 -3
BITMAP
0180
0080
0f00
1100
0000
1f80
1000
2000
2000
3c00
4000
4000
4000
8000
fc00
0000
0000
0000
ENDCHAR
STARTCHAR c8d
ENCODING 141
SWIDTH 500 0
DWIDTH 9 0
BBX 9 18 0 -3
BITMAP
0680
0b00
0f00
1100
0000
1f80
1000
2000
2000
3c00
4000
4000
4000
8000
fc00
0000
0000
0000
ENDCHAR
STARTCHAR c8e
ENCODING 142
SWIDTH 500 0
DWIDTH 9 0
BBX 9 18 0 -3
BITMAP
0000
0000
0f00
1100
0000
1f80
1000
2000
2000
3c00
4000
4000
4000
8000
fc00
0000
2000
2000
ENDCHAR
STARTCHAR c8f
ENCODING 143
SWIDTH 500 0
DWIDTH 9 0
BBX 9 18 0 -3
BITMAP
0000
0400
0800
0f00
1100
1e00
2100
4100
4100
4100
8200
8200
8200
8400
7800
0000
0000
0000
ENDCHAR
STARTCHAR c90
ENCODING 144
SWIDTH 500 0
DWIDTH 9 0
BBX 9 18 0 -3
BITMAP
0000
0000
0000
0f00
1100
1e00
2100
4100
4100
4100
8200
8200
8200
8400
7800
0000
0000
0000
ENDCHAR
STARTCHAR c91
ENCODING 145
SWIDTH 500 0
DWIDTH 9 0
BBX 9 18 0 -3
BITMAP
0000
0180
0080
0f00
1100
1e00
2100
4100
4100
4100
8200
8200
8200
8400
7800
0000
0000
0000
ENDCHAR
STARTCHAR c92
ENCODING 146
SWIDTH 500 0
DWIDTH 9 0
BBX 9 18 0 -3
BITMAP
0680
0b00
0000
0f00
1100
1e00
2100
4100
4100
4100
8200
8200
8200
8400
7800
0000
0000
0000
ENDCHAR
STARTCHAR c93
ENCODING 147
SWIDTH 500 0
DWIDTH 9 0
BBX 9 18 0 -3
BITMAP
0000
0000
0000
0f00
1100
1e00
2100
4100
4100
4100
8200
8200
8200
8400
7800
0000
2000
2000
ENDCHAR
STARTCHAR c94
ENCODING 148
SWIDTH 500 0
DWIDTH 9 0
BBX 9 18 0 -3
BITMAP
0000
0000
0180
0080
0100
1e00
2100
4100
4100
4100
8200
8200
8200
8400
7800
0000
0000
0000
ENDCHAR
STARTCHAR c95
ENCODING 149
SWIDTH 500 0
DWIDTH 9 0
BBX 9 18 0 -3
BITMAP
0000
0400
0980
1080
0100
1e00
2100
4100
4100
4100
8200
8200
8200
8400
7800
0000
0000
0000
ENDCHAR
STARTCHAR c96
ENCODING 150
SWIDTH 500 0
DWIDTH 9 0
BBX 9 18 0 -3
BITMAP
0000
0800
0580
0480
0100
1e00
2100
4100
4100
4100
8200
8200
8200
8400
7800
0000
0000
0000
ENDCHAR
STARTCHAR c97
ENCODING 151
SWIDTH 500 0
DWIDTH 9 0
BBX 9 18 0 -3
BITMAP
0000
0e00
0380
0c80
0100
1e00
2100
4100
4100
4100
8200
8200
8200
8400
7800
0000
0000
0000
ENDCHAR
STARTCHAR c98
ENCODING 152
SWIDTH 500 0
DWIDTH 9 0
BBX 9 18 0 -3
BITMAP
0000
0000
0000
0000
0000
1f00
0400
0400
0800
0800
0800
1000
1000
1000
7c00
0000
2000
2000
ENDCHAR
STARTCHAR c99
ENCODING 153
SWIDTH 500 0
DWIDTH 9 0
BBX 9 18 0 -3
BITMAP
0000
0e00
0200
0400
0000
1e00
2100
4100
4100
4100
8200
8200
8200
8400
7800
0000
0000
0000
ENDCHAR
STARTCHAR c9a
ENCODING 154
SWIDTH 500 0
DWIDTH 9 0
BBX 9 18 0 -3
BITMAP
0000
0000
0000
0000
0000
1e00
2100
4100
4100
4100
8200
8200
8200
8400
7800
0000
2000
2000
ENDCHAR
STARTCHAR c9b
ENCODING 155
SWIDTH 500 0
DWIDTH 9 0
BBX 9 18 0 -3
BITMAP
0000
0700
0100
0200
0000
1f00
0400
0400
0400
0800
0800
1000
1000
1000
7c00
0000
0000
0000
ENDCHAR
STARTCHAR c9c
ENCODING 156
SWIDTH 500 0
DWIDTH 9 0
BBX 9 18 0 -3
BITMAP
0000
0e00
0200
0400
0000
2080
2080
4080
4100
4100
4100
8200
8200
8400
7800
0000
0000
0000
ENDCHAR
STARTCHAR c9d
ENCODING 157
SWIDTH 500 0
DWIDTH 9 0
BBX 9 18 0 -3
BITMAP
0000
0000
0d00
1600
0000
2080
2080
4080
4100
4100
4100
8200
8200
8400
7800
0000
0000
0000
ENDCHAR
STARTCHAR c9e
ENCODING 158
SWIDTH 500 0
DWIDTH 9 0
BBX 9 18 0 -3
BITMAP
0000
0000
0000
0000
0000
2080
2080
4080
4100
4100
4100
8200
8200
8400
7800
0000
2000
2000
ENDCHAR
STARTCHAR c9f
ENCODING 159
SWIDTH 500 0
DWIDTH 9 0
BBX 9 18 0 -3
BITMAP
0000
0000
0800
0400
0400
4080
4100
2200
2400
1800
1000
1000
2000
2000
2000
0000
0000
0000
ENDCHAR
STARTCHAR ca0
ENCODING 160
SWIDTH 500 0
DWIDTH 9 0
BBX 9 18 0 -3
BITMAP
0000
0000
0d00
1600
0000
1e00
2100
4100
4100
4100
8200
8200
8200
8400
7800
0000
0000
0000
ENDCHAR
STARTCHAR ca1
ENCODING 161
SWIDTH 500 0
DWIDTH 9 0
BBX 9 18 0 -3
BITMAP
0000
0000
0000
0200
0400
1100
1e00
0000
1e00
2100
0100
3f00
4200
8600
7a00
0000
0000
0000
ENDCHAR
STARTCHAR ca2
ENCODING 162
SWIDTH 500 0
DWIDTH 9 0
BBX 9 18 0 -3
BITMAP
0000
0000
0000
0800
0400
1100
1e00
0000
1e00
2100
0100
3f00
4200
8600
7a00
0000
0000
0000
ENDCHAR
STARTCHAR ca3
ENCODING 163
SWIDTH 500 0
DWIDTH 9 0
BBX 9 18 0 -3
BITMAP
0000
0000
0000
0000
0000
1100
1e00
0000
1e00
2100
0100
3f00
4200
8600
7a00
0000
2000
2000
ENDCHAR
STARTCHAR ca4
ENCODING 164
SWIDTH 500 0
DWIDTH 9 0
BBX 9 18 0 -3
BITMAP
0000
0000
0000
0800
1000
0f00
1100
0000
1e00
2100
0100
3f00
4200
8600
7a00
0000
0000
0000
ENDCHAR
STARTCHAR ca5
ENCODING 165
SWIDTH 500 0
DWIDTH 9 0
BBX 9 18 0 -3
BITMAP
0000
0000
0000
0100
0080
0f00
1100
0000
1e00
2100
0100
3f00
4200
8600
7a00
0000
0000
0000
ENDCHAR
STARTCHAR ca6
ENCODING 166
SWIDTH 500 0
DWIDTH 9 0
BBX 9 18 0 -3
BITMAP
0000
0000
0700
0100
0600
0f00
1100
0000
1e00
2100
0100
3f00
4200
8600
7a00
0000
0000
0000
ENDCHAR
STARTCHAR ca7
ENCODING 167
SWIDTH 500 0
DWIDTH 9 0
BBX 9 18 0 -3
BITMAP
0000
0000
0000
0000
0000
0f00
1100
0000
1e00
2100
0100
3f00
4200
8600
7a00
0000
2000
2000
ENDCHAR
STARTCHAR ca8
ENCODING 168
SWIDTH 500 0
DWIDTH 9 0
BBX 9 18 0 -3
BITMAP
0000
0000
0000
0000
0000
0d00
1600
0000
1e00
2100
4100
7e00
4000
4200
3c00
0000
0000
0000
ENDCHAR
STARTCHAR ca9
ENCODING 169
SWIDTH 500 0
DWIDTH 9 0
BBX 9 18 0 -3
BITMAP
0000
0000
0000
0000
0000
0000
0000
0000
1e00
2100
4100
7e00
4000
4200
3c00
0000
1000
1000
ENDCHAR
STARTCHAR caa
ENCODING 170
SWIDTH 500 0
DWIDTH 9 0
BBX 9 18 0 -3
BITMAP
0000
0000
0000
0800
1000
0f00
1100
0000
1e00
2100
4100
7e00
4000
4200
3c00
0000
0000
0000
ENDCHAR
STARTCHAR cab
ENCODING 171
SWIDTH 500 0
DWIDTH 9 0
BBX 9 18 0 -3
BITMAP
0000
0000
0000
0100
0080
0f00
1100
0000
1e00
2100
4100
7e00
4000
4200
3c00
0000
0000
0000
ENDCHAR
STARTCHAR cac
ENCODING 172
SWIDTH 500 0
DWIDTH 9 0
BBX 9 18 0 -3
BITMAP
0000
0700
0100
0600
0000
0f00
1100
0000
1e00
2100
4100
7e00
4000
4200
3c00
0000
0000
0000
ENDCHAR
STARTCHAR cad
ENCODING 173
SWIDTH 500 0
DWIDTH 9 0
BBX 9 18 0 -3
BITMAP
0000
0000
0680
0b00
0000
0f00
1100
0000
1e00
2100
4100
7e00
4000
4200
3c00
0000
0000
0000
ENDCHAR
STARTCHAR cae
ENCODING 174
SWIDTH 500 0
DWIDTH 9 0
BBX 9 18 0 -3
BITMAP
0000
0000
0000
0000
0000
0f00
1100
0000
1e00
2100
4100
7e00
4000
4200
3c00
0000
1000
1000
ENDCHAR
STARTCHAR caf
ENCODING 175
SWIDTH 500 0
DWIDTH 9 0
BBX 9 18 0 -3
BITMAP
0000
0000
0000
0800
1000
0f00
1100
0000
1e00
2100
2100
4100
4200
4200
3c00
0000
0000
0000
ENDCHAR
STARTCHAR cb0
ENCODING 176
SWIDTH 500 0
DWIDTH 9 0
BBX 9 18 0 -3
BITMAP
0000
0000
0000
0100
0080
0f00
1100
0000
1e00
2100
2100
4100
4200
4200
3c00
0000
0000
0000
ENDCHAR
STARTCHAR cb1
ENCODING 177
SWIDTH 500 0
DWIDTH 9 0
BBX 9 18 0 -3
BITMAP
0000
0700
0100
0600
0000
0f00
1100
0000
1e00
2100
2100
4100
4200
4200
3c00
0000
0000
0000
ENDCHAR
STARTCHAR cb2
ENCODING 178
SWIDTH 500 0
DWIDTH 9 0
BBX 9 18 0 -3
BITMAP
0000
0000
0680
0b00
0000
0f00
1100
0000
1e00
2100
2100
4100
4200
4200
3c00
0000
0000
0000
ENDCHAR
STARTCHAR cb3
ENCODING 179
SWIDTH 500 0
DWIDTH 9 0
BBX 9 18 0 -3
BITMAP
0d00
1600
0180
0080
0100
1e00
2100
4100
4100
4100
8200
8200
8200
8400
7800
0000
0000
0000
ENDCHAR
STARTCHAR cb4
ENCODING 180
SWIDTH 500 0
DWIDTH 9 0
BBX 9 18 0 -3
BITMAP
0000
0000
0180
0080
0100
1e00
2100
4100
4100
4100
8200
8200
8200
8400
7800
0000
0000
0000
ENDCHAR
STARTCHAR cb5
ENCODING 181
SWIDTH 500 0
DWIDTH 9 0
BBX 9 18 0 -3
BITMAP
0000
0000
0000
0000
0000
0f00
1100
0000
1e00
2100
2100
4100
4200
4200
3c00
0000
1000
1000
ENDCHAR
STARTCHAR cb6
ENCODING 182
SWIDTH 500 0
DWIDTH 9 0
BBX 9 18 0 -3
BITMAP
0000
0000
0000
0000
0800
0580
0480
0100
1e00
2100
2100
4100
4200
4200
3c00
0000
0000
0000
ENDCHAR
STARTCHAR cb7
ENCODING 183
SWIDTH 500 0
DWIDTH 9 0
BBX 9 18 0 -3
BITMAP
0000
0000
0000
0e00
0200
0d80
0080
0100
1e00
2100
2100
4100
4200
4200
3c00
0000
0000
0000
ENDCHAR
STARTCHAR cb8
ENCODING 184
SWIDTH 500 0
DWIDTH 9 0
BBX 9 18 0 -3
BITMAP
0000
0000
0000
0000
0000
0200
0200
0000
0400
1c00
0800
0800
1000
1200
1c00
0000
2000
2000
ENDCHAR
STARTCHAR cb9
ENCODING 185
SWIDTH 500 0
DWIDTH 9 0
BBX 9 18 0 -3
BITMAP
0000
0000
0180
0080
0100
2080
2080
4080
4100
4100
4100
8200
8200
8400
7800
0000
2000
2000
ENDCHAR
STARTCHAR cba
ENCODING 186
SWIDTH 500 0
DWIDTH 9 0
BBX 9 18 0 -3
BITMAP
0000
0200
0580
0880
0100
2080
2080
4080
4100
4100
4100
8200
8200
8400
7800
0000
0000
0000
ENDCHAR
STARTCHAR cbb
ENCODING 187
SWIDTH 500 0
DWIDTH 9 0
BBX 9 18 0 -3
BITMAP
0000
1000
0980
0480
0100
2080
2080
4080
4100
4100
4100
8200
8200
8400
7800
0000
0000
0000
ENDCHAR
STARTCHAR cbc
ENCODING 188
SWIDTH 500 0
DWIDTH 9 0
BBX 9 18 0 -3
BITMAP
0000
0e00
0380
0c80
0100
2080
2080
4080
4100
4100
4100
8200
8200
8400
7800
0000
0000
0000
ENDCHAR
STARTCHAR cbd
ENCODING 189
SWIDTH 500 0
DWIDTH 9 0
BBX 9 18 0 -3
BITMAP
0000
0000
0000
0000
0000
0180
0080
0100
1e00
2100
2100
4100
4200
4200
3c00
0000
0000
0000
ENDCHAR
STARTCHAR cbe
ENCODING 190
SWIDTH 500 0
DWIDTH 9 0
BBX 9 18 0 -3
BITMAP
0000
0000
0000
0000
0400
0980
1080
0100
1e00
2100
2100
4100
4200
4200
3c00
0000
0000
0000
ENDCHAR
STARTCHAR cbf
ENCODING 191
SWIDTH 500 0
DWIDTH 9 0
BBX 9 18 0 -3
BITMAP
0000
0000
0180
0080
0100
2080
2080
4080
4100
4100
4100
8200
8200
8400
7800
0000
0000
0000
ENDCHAR
STARTCHAR cc0
ENCODING 192
SWIDTH 500 0
DWIDTH 9 0
BBX 9 18 0 -3
BITMAP
0000
0200
0100
0100
0000
0e00
1100
2100
2100
4100
7f00
4200
8200
8400
8400
0000
0000
0000
ENDCHAR
STARTCHAR cc1
ENCODING 193
SWIDTH 500 0
DWIDTH 9 0
BBX 9 18 0 -3
BITMAP
0000
0200
0400
0800
0000
0e00
1100
2100
2100
4100
7f00
4200
8200
8400
8400
0000
0000
0000
ENDCHAR
STARTCHAR cc2
ENCODING 194
SWIDTH 500 0
DWIDTH 9 0
BBX 9 18 0 -3
BITMAP
0000
0000
0f00
1100
0000
0e00
1100
2100
2100
4100
7f00
4200
8200
8400
8400
0000
0000
0000
ENDCHAR
STARTCHAR cc3
ENCODING 195
SWIDTH 500 0
DWIDTH 9 0
BBX 9 18 0 -3
BITMAP
0000
0000
0680
0b00
0000
0e00
1100
2100
2100
4100
7f00
4200
8200
8400
8400
0000
0000
0000
ENDCHAR
STARTCHAR cc4
ENCODING 196
SWIDTH 500 0
DWIDTH 9 0
BBX 9 18 0 -3
BITMAP
0000
0700
0100
0600
0000
0e00
1100
2100
2100
4100
7f00
4200
8200
8400
8400
0000
0000
0000
ENDCHAR
STARTCHAR cc5
ENCODING 197
SWIDTH 500 0
DWIDTH 9 0
BBX 9 18 0 -3
BITMAP
0000
0000
0880
0f00
0000
0e00
1100
2100
2100
4100
7f00
4200
8200
8400
8400
0000
0000
0000
ENDCHAR
STARTCHAR cc6
ENCODING 198
SWIDTH 500 0
DWIDTH 9 0
BBX 9 18 0 -3
BITMAP
0000
0000
0e00
0200
0c00
1100
1e00
0000
1e00
2100
0100
3f00
4200
8600
7a00
0000
0000
0000
ENDCHAR
STARTCHAR cc7
ENCODING 199
SWIDTH 500 0
DWIDTH 9 0
BBX 9 18 0 -3
BITMAP
0000
0000
0680
0b00
0000
1100
1e00
0000
1e00
2100
0100
3f00
4200
8600
7a00
0000
0000
0000
ENDCHAR
STARTCHAR cc8
ENCODING 200
SWIDTH 500 0
DWIDTH 9 0
BBX 9 18 0 -3
BITMAP
0000
0400
0200
0200
0000
1f80
1000
2000
2000
3c00
4000
4000
4000
8000
fc00
0000
0000
0000
ENDCHAR
STARTCHAR cc9
ENCODING 201
SWIDTH 500 0
DWIDTH 9 0
BBX 9 18 0 -3
BITMAP
0000
0200
0400
0800
0000
1f80
1000
2000
2000
3c00
4000
4000
4000
8000
fc00
0000
0000
0000
ENDCHAR
STARTCHAR cca
ENCODING 202
SWIDTH 500 0
DWIDTH 9 0
BBX 9 18 0 -3
BITMAP
0000
0000
0780
0880
0000
1f80
1000
2000
2000
3c00
4000
4000
4000
8000
fc00
0000
0000
0000
ENDCHAR
STARTCHAR ccb
ENCODING 203
SWIDTH 500 0
DWIDTH 9 0
BBX 9 18 0 -3
BITMAP
0000
0700
0100
0600
0000
1f80
1000
2000
2000
3c00
4000
4000
4000
8000
fc00
0000
0000
0000
ENDCHAR
STARTCHAR ccc
ENCODING 204
SWIDTH 500 0
DWIDTH 9 0
BBX 9 18 0 -3
BITMAP
0000
0200
0100
0100
0000
1f00
0400
0400
0800
0800
0800
1000
1000
1000
7c00
0000
0000
0000
ENDCHAR
STARTCHAR ccd
ENCODING 205
SWIDTH 500 0
DWIDTH 9 0
BBX 9 18 0 -3
BITMAP
0000
0100
0200
0400
0000
1f00
0400
0400
0800
0800
0800
1000
1000
1000
7c00
0000
0000
0000
ENDCHAR
STARTCHAR cce
ENCODING 206
SWIDTH 500 0
DWIDTH 9 0
BBX 9 18 0 -3
BITMAP
0000
0000
0680
0b00
0000
1f00
0400
0400
0800
0800
0800
1000
1000
1000
7c00
0000
0000
0000
ENDCHAR
STARTCHAR ccf
ENCODING 207
SWIDTH 500 0
DWIDTH 9 0
BBX 9 18 0 -3
BITMAP
0000
0000
0000
0000
0000
0800
0400
0400
2100
2100
2100
4200
4200
4600
3a00
0400
4400
3800
ENDCHAR
STARTCHAR cd0
ENCODING 208
SWIDTH 500 0
DWIDTH 9 0
BBX 9 18 0 -3
BITMAP
0000
0000
0000
0000
0000
1e00
1100
2100
2080
f880
4100
4100
4200
8400
f800
0000
0000
0000
ENDCHAR
STARTCHAR cd1
ENCODING 209
SWIDTH 500 0
DWIDTH 9 0
BBX 9 18 0 -3
BITMAP
0000
0000
0000
0200
0580
0880
0100
0000
2100
2100
2100
4200
4200
4600
3a00
0000
0000
0000
ENDCHAR
STARTCHAR cd2
ENCODING 210
SWIDTH 500 0
DWIDTH 9 0
BBX 9 18 0 -3
BITMAP
0000
0400
0200
0200
0000
1e00
2100
4100
4100
4100
8200
8200
8200
8400
7800
0000
0000
0000
ENDCHAR
STARTCHAR cd3
ENCODING 211
SWIDTH 500 0
DWIDTH 9 0
BBX 9 18 0 -3
BITMAP
0000
0400
0800
1000
0000
1e00
2100
4100
4100
4100
8200
8200
8200
8400
7800
0000
0000
0000
ENDCHAR
STARTCHAR cd4
ENCODING 212
SWIDTH 500 0
DWIDTH 9 0
BBX 9 18 0 -3
BITMAP
0000
0000
0f00
1100
0000
1e00
2100
4100
4100
4100
8200
8200
8200
8400
7800
0000
0000
0000
ENDCHAR
STARTCHAR cd5
ENCODING 213
SWIDTH 500 0
DWIDTH 9 0
BBX 9 18 0 -3
BITMAP
0000
0000
0000
0000
0000
0000
0000
0000
1e00
2100
0100
3f00
4200
8600
7a00
0000
2000
2000
ENDCHAR
STARTCHAR cd6
ENCODING 214
SWIDTH 500 0
DWIDTH 9 0
BBX 9 18 0 -3
BITMAP
0000
0000
0000
0000
0000
0e00
0200
0c00
2100
2100
2100
4200
4200
4600
3a00
0400
4400
3800
ENDCHAR
STARTCHAR cd7
ENCODING 215
SWIDTH 500 0
DWIDTH 9 0
BBX 9 18 0 -3
BITMAP
0000
0000
0000
0800
0580
0480
0100
0000
2100
2100
2100
4200
4200
4600
3a00
0000
0000
0000
ENDCHAR
STARTCHAR cd8
ENCODING 216
SWIDTH 500 0
DWIDTH 9 0
BBX 9 18 0 -3
BITMAP
0000
0000
0000
0e00
0380
0c80
0100
0000
2100
2100
2100
4200
4200
4600
3a00
0000
0000
0000
ENDCHAR
STARTCHAR cd9
ENCODING 217
SWIDTH 500 0
DWIDTH 9 0
BBX 9 18 0 -3
BITMAP
0000
0000
0400
0200
0200
2080
2080
4080
4100
4100
4100
8200
8200
8400
7800
0000
0000
0000
ENDCHAR
STARTCHAR cda
ENCODING 218
SWIDTH 500 0
DWIDTH 9 0
BBX 9 18 0 -3
BITMAP
0000
0000
0100
0200
0400
2080
2080
4080
4100
4100
4100
8200
8200
8400
7800
0000
0000
0000
ENDCHAR
STARTCHAR cdb
ENCODING 219
SWIDTH 500 0
DWIDTH 9 0
BBX 9 18 0 -3
BITMAP
0000
0000
0000
0000
0000
0d00
1600
0000
2100
2100
2100
4200
4200
4600
3a00
0400
4400
3800
ENDCHAR
STARTCHAR cdc
ENCODING 220
SWIDTH 500 0
DWIDTH 9 0
BBX 9 18 0 -3
BITMAP
0000
0000
0000
0000
0000
0000
0000
0000
2100
2100
2100
4200
4200
4600
3a00
0400
4400
3b00
ENDCHAR
STARTCHAR cdd
ENCODING 221
SWIDTH 500 0
DWIDTH 9 0
BBX 9 18 0 -3
BITMAP
0000
0000
0400
0800
1000
4080
4100
2200
2400
1800
1000
1000
2000
2000
2000
0000
0000
0000
ENDCHAR
STARTCHAR cde
ENCODING 222
SWIDTH 500 0
DWIDTH 9 0
BBX 9 18 0 -3
BITMAP
0000
0000
0000
0d00
1600
0180
0080
0100
1e00
2100
2100
4100
4200
4200
3c00
0000
1000
1000
ENDCHAR
STARTCHAR cdf
ENCODING 223
SWIDTH 500 0
DWIDTH 9 0
BBX 9 18 0 -3
BITMAP
0000
0000
0000
0000
00c0
0040
0100
0000
4100
8200
8200
8200
0400
8c00
7400
0000
0000
0000
ENDCHAR
STARTCHAR ce0
ENCODING 224
SWIDTH 500 0
DWIDTH 9 0
BBX 9 18 0 -3
BITMAP
0000
0000
0000
0000
0400
0200
0200
0000
1e00
2100
0100
3f00
4200
8600
7a00
0000
0000
0000
ENDCHAR
STARTCHAR ce1
ENCODING 225
SWIDTH 500 0
DWIDTH 9 0
BBX 9 18 0 -3
BITMAP
0000
0000
0000
0000
0200
0400
0800
0000
1e00
2100
0100
3f00
4200
8600
7a00
0000
0000
0000
ENDCHAR
STARTCHAR ce2
ENCODING 226
SWIDTH 500 0
DWIDTH 9 0
BBX 9 18 0 -3
BITMAP
0000
0000
0000
0000
0000
0f00
1100
0000
1e00
2100
0100
3f00
4200
8600
7a00
0000
0000
0000
ENDCHAR
STARTCHAR ce3
ENCODING 227
SWIDTH 500 0
DWIDTH 9 0
BBX 9 18 0 -3
BITMAP
0000
0000
0000
0000
0000
0d00
1600
0000
1e00
2100
0100
3f00
4200
8600
7a00
0000
0000
0000
ENDCHAR
STARTCHAR ce4
ENCODING 228
SWIDTH 500 0
DWIDTH 9 0
BBX 9 18 0 -3
BITMAP
0000
0000
0000
0000
0e00
0200
0c00
0000
1e00
2100
0100
3f00
4200
8600
7a00
0000
0000
0000
ENDCHAR
STARTCHAR ce5
ENCODING 229
SWIDTH 500 0
DWIDTH 9 0
BBX 9 18 0 -3
BITMAP
0000
0000
0000
0000
0000
1100
1e00
0000
1e00
2100
0100
3f00
4200
8600
7a00
0000
0000
0000
ENDCHAR
STARTCHAR ce6
ENCODING 230
SWIDTH 500 0
DWIDTH 9 0
BBX 9 18 0 -3
BITMAP
0000
0000
0b00
0d00
00c0
0040
0100
0000
4100
8200
8200
8200
0400
8c00
7400
0000
0000
0000
ENDCHAR
STARTCHAR ce7
ENCODING 231
SWIDTH 500 0
DWIDTH 9 0
BBX 9 18 0 -3
BITMAP
0000
0000
0680
0b00
0000
0f00
1100
0000
1e00
2100
0100
3f00
4200
8600
7a00
0000
0000
0000
ENDCHAR
STARTCHAR ce8
ENCODING 232
SWIDTH 500 0
DWIDTH 9 0
BBX 9 18 0 -3
BITMAP
0000
0000
0000
0000
0400
0200
0200
0000
1e00
2100
4100
7e00
4000
4200
3c00
0000
0000
0000
ENDCHAR
STARTCHAR ce9
ENCODING 233
SWIDTH 500 0
DWIDTH 9 0
BBX 9 18 0 -3
BITMAP
0000
0000
0000
0000
0200
0400
0800
0000
1e00
2100
4100
7e00
4000
4200
3c00
0000
0000
0000
ENDCHAR
STARTCHAR cea
ENCODING 234
SWIDTH 500 0
DWIDTH 9 0
BBX 9 18 0 -3
BITMAP
0000
0000
0000
0000
0000
0f00
1100
0000
1e00
2100
4100
7e00
4000
4200
3c00
0000
0000
0000
ENDCHAR
STARTCHAR ceb
ENCODING 235
SWIDTH 500 0
DWIDTH 9 0
BBX 9 18 0 -3
BITMAP
0000
0000
0000
0000
0e00
0200
0c00
0000
1e00
2100
4100
7e00
4000
4200
3c00
0000
0000
0000
ENDCHAR
STARTCHAR cec
ENCODING 236
SWIDTH 500 0
DWIDTH 9 0
BBX 9 18 0 -3
BITMAP
0000
0000
0000
0000
0400
0200
0200
0000
0400
1c00
0800
0800
1000
1200
1c00
0000
0000
0000
ENDCHAR
STARTCHAR ced
ENCODING 237
SWIDTH 500 0
DWIDTH 9 0
BBX 9 18 0 -3
BITMAP
0000
0000
0000
0000
0200
0400
0800
0000
0400
1c00
0800
0800
1000
1200
1c00
0000
0000
0000
ENDCHAR
STARTCHAR cee
ENCODING 238
SWIDTH 500 0
DWIDTH 9 0
BBX 9 18 0 -3
BITMAP
0000
0000
0000
0000
0000
0680
0b00
0000
0400
1c00
0800
0800
1000
1200
1c00
0000
0000
0000
ENDCHAR
STARTCHAR cef
ENCODING 239
SWIDTH 500 0
DWIDTH 9 0
BBX 9 18 0 -3
BITMAP
0000
0000
0000
0000
0700
0100
0600
0000
0400
1c00
0800
0800
1000
1200
1c00
0000
0000
0000
ENDCHAR
STARTCHAR cf0
ENCODING 240
SWIDTH 500 0
DWIDTH 9 0
BBX 9 18 0 -3
BITMAP
0000
0000
0000
0000
0000
0100
0780
0100
1a00
2600
4200
8200
8400
8c00
7400
0000
0000
0000
ENDCHAR
STARTCHAR cf1
ENCODING 241
SWIDTH 500 0
DWIDTH 9 0
BBX 9 18 0 -3
BITMAP
0000
0000
0000
0000
0180
0080
0100
0000
2100
2100
2100
4200
4200
4600
3a00
0000
1000
1000
ENDCHAR
STARTCHAR cf2
ENCODING 242
SWIDTH 500 0
DWIDTH 9 0
BBX 9 18 0 -3
BITMAP
0000
0000
0000
0000
0400
0200
0200
0000
1e00
2100
2100
4100
4200
4200
3c00
0000
0000
0000
ENDCHAR
STARTCHAR cf3
ENCODING 243
SWIDTH 500 0
DWIDTH 9 0
BBX 9 18 0 -3
BITMAP
0000
0000
0000
0000
0200
0400
0800
0000
1e00
2100
2100
4100
4200
4200
3c00
0000
0000
0000
ENDCHAR
STARTCHAR cf4
ENCODING 244
SWIDTH 500 0
DWIDTH 9 0
BBX 9 18 0 -3
BITMAP
0000
0000
0000
0000
0000
0f00
1100
0000
1e00
2100
2100
4100
4200
4200
3c00
0000
0000
0000
ENDCHAR
STARTCHAR cf5
ENCODING 245
SWIDTH 500 0
DWIDTH 9 0
BBX 9 18 0 -3
BITMAP
0000
0000
0000
0000
0000
0d00
1600
0000
1e00
2100
2100
4100
4200
4200
3c00
0000
0000
0000
ENDCHAR
STARTCHAR cf6
ENCODING 246
SWIDTH 500 0
DWIDTH 9 0
BBX 9 18 0 -3
BITMAP
0000
0000
0000
0000
0e00
0200
0c00
0000
1e00
2100
2100
4100
4200
4200
3c00
0000
0000
0000
ENDCHAR
STARTCHAR cf7
ENCODING 247
SWIDTH 500 0
DWIDTH 9 0
BBX 9 18 0 -3
BITMAP
0000
0000
0000
0000
0000
0000
0000
0000
1e00
2100
2100
4100
4200
4200
3c00
0000
1000
1000
ENDCHAR
STARTCHAR cf8
ENCODING 248
SWIDTH 500 0
DWIDTH 9 0
BBX 9 18 0 -3
BITMAP
0000
0000
0000
0000
0000
0000
0000
0000
2100
2100
2100
4200
4200
4600
3a00
0000
1000
1000
ENDCHAR
STARTCHAR cf9
ENCODING 249
SWIDTH 500 0
DWIDTH 9 0
BBX 9 18 0 -3
BITMAP
0000
0000
0000
0000
0000
0800
0400
0400
2100
2100
2100
4200
4200
4600
3a00
0000
0000
0000
ENDCHAR
STARTCHAR cfa
ENCODING 250
SWIDTH 500 0
DWIDTH 9 0
BBX 9 18 0 -3
BITMAP
0000
0000
0000
0000
0000
0200
0400
0800
2100
2100
2100
4200
4200
4600
3a00
0000
0000
0000
ENDCHAR
STARTCHAR cfb
ENCODING 251
SWIDTH 500 0
DWIDTH 9 0
BBX 9 18 0 -3
BITMAP
0000
0000
0000
0000
0000
0f00
1100
0000
2100
2100
2100
4200
4200
4600
3a00
0000
0000
0000
ENDCHAR
STARTCHAR cfc
ENCODING 252
SWIDTH 500 0
DWIDTH 9 0
BBX 9 18 0 -3
BITMAP
0000
0000
0000
0000
0000
0e00
0200
0c00
2100
2100
2100
4200
4200
4600
3a00
0000
0000
0000
ENDCHAR
STARTCHAR cfd
ENCODING 253
SWIDTH 500 0
DWIDTH 9 0
BBX 9 18 0 -3
BITMAP
0000
0000
0000
0000
0000
0200
0400
0800
2100
2100
2100
4200
4200
4600
3a00
0400
4400
3800
ENDCHAR
STARTCHAR cfe
ENCODING 254
SWIDTH 500 0
DWIDTH 9 0
BBX 9 18 0 -3
BITMAP
0000
0000
0000
0000
0000
0180
0080
0100
1e00
2100
2100
4100
4200
4200
3c00
0000
1000
1000
ENDCHAR
STARTCHAR cff
ENCODING 255
SWIDTH 500 0
DWIDTH 9 0
BBX 9 18 0 -3
BITMAP
0d00
1600
0180
0080
0100
2080
2080
4080
4100
4100
4100
8200
8200
8400
7800
0000
0000
0000
ENDCHAR
ENDFONT
